<svg id="Layer_1" data-name="Layer 1" xmlns="http://www.w3.org/2000/svg" xmlns:xlink="http://www.w3.org/1999/xlink" viewBox="0 0 205.38 239.92"><defs><style>.cls-1{fill:none;}.cls-2{clip-path:url(#clip-path);}.cls-3{fill:#1d1d1b;}</style><clipPath id="clip-path" transform="translate(0 0)"><rect class="cls-1" width="205.38" height="239.92"/></clipPath></defs><title>category-img1</title><g class="cls-2"><path class="cls-3" d="M178.25,110.19l-5.49-4.68V79.93a34.77,34.77,0,0,0,6.76-20.63V35.89a10.28,10.28,0,0,0-10.27-10.27H131.6a29.13,29.13,0,0,0-57.83,0H36.12A10.28,10.28,0,0,0,25.85,35.89V59.3a34.77,34.77,0,0,0,6.76,20.63v25.58l-5.49,4.68A77.09,77.09,0,0,0,0,168.95v44.62a26.38,26.38,0,0,0,26.35,26.35H179a26.38,26.38,0,0,0,26.35-26.35V168.95a77.09,77.09,0,0,0-27.12-58.75m-4.56,5.34a70.11,70.11,0,0,1,22.66,36.78h-23.6V114.74Zm-1.2-79.65V59.3A27.82,27.82,0,0,1,166.17,77h-.43v.5a27.89,27.89,0,0,1-21.19,9.76h-4.92V32.64h29.62a3.25,3.25,0,0,1,3.25,3.25M132.61,87.25H72.77V32.64h59.84ZM102.69,7a22.14,22.14,0,0,1,21.83,18.6H80.86A22.14,22.14,0,0,1,102.69,7M32.87,35.89a3.25,3.25,0,0,1,3.25-3.25H65.74V87.25H60.83a27.89,27.89,0,0,1-21.19-9.76V77h-.43A27.82,27.82,0,0,1,32.87,59.3Zm-1.2,79.65.94-.8v37.59H9a70.1,70.1,0,0,1,22.66-36.78M26.35,232.9A19.35,19.35,0,0,1,7,213.57V168.95a70.47,70.47,0,0,1,.66-9.61H32.61V232.9Zm139.39,0H39.64V87.09a34.79,34.79,0,0,0,21.19,7.18h4.92v14.89h7V94.27h59.84v14.89h7V94.27h4.92a34.79,34.79,0,0,0,21.19-7.18Zm32.62-19.33A19.35,19.35,0,0,1,179,232.9h-6.26V159.34H197.7a70.63,70.63,0,0,1,.66,9.61Z" transform="translate(0 0)"/><path class="cls-3" d="M142.56,156.47H62.81A11.83,11.83,0,0,0,51,168.29v47a11.83,11.83,0,0,0,11.82,11.82h79.75a11.83,11.83,0,0,0,11.82-11.82v-47a11.83,11.83,0,0,0-11.82-11.82m-79.75,7h79.75a4.8,4.8,0,0,1,4.8,4.8V172H58v-3.7a4.8,4.8,0,0,1,4.8-4.8m79.75,56.63H62.81a4.8,4.8,0,0,1-4.8-4.8V179h89.34v36.32a4.8,4.8,0,0,1-4.8,4.8" transform="translate(0 0)"/><rect class="cls-3" x="85.5" y="102.83" width="34.38" height="7.02"/><rect class="cls-3" x="85.5" y="116.66" width="34.38" height="7.02"/><rect class="cls-3" x="85.5" y="130.49" width="34.38" height="7.02"/></g></svg>