<svg id="Layer_1" data-name="Layer 1" xmlns="http://www.w3.org/2000/svg" xmlns:xlink="http://www.w3.org/1999/xlink" viewBox="0 0 480 484.7"><defs><style>.cls-1{fill:none;}.cls-2{clip-path:url(#clip-path);}</style><clipPath id="clip-path"><rect class="cls-1" width="480" height="484.7"/></clipPath></defs><title>category-img3</title><g class="cls-2"><path d="M8,312H120.29L1.53,475.3l12.94,9.41L140.07,312H232V480h16V312h91.93l125.6,172.7,12.94-9.41L359.71,312H472a8,8,0,0,0,8-8V8a8,8,0,0,0-8-8H8A8,8,0,0,0,0,8V304a8,8,0,0,0,8,8M16,16H464V296H16Z"/><path d="M65.28,222.64l61-10.54v17.32a18.32,18.32,0,0,0,18.07,18.07h201a18.32,18.32,0,0,0,18.07-18.07V85.6c-1.51-9.79-9-18.07-18.82-18.07h-201A18.32,18.32,0,0,0,125.52,85.6v64l-67,60.23a8,8,0,0,0-1.51,9,8.17,8.17,0,0,0,8.28,3.76m73-64a8.13,8.13,0,0,0,2.26-5.27V85.6c.75-1.51,1.51-3,3-3H343.87a2.76,2.76,0,0,1,3,3V230.16a3.24,3.24,0,0,1-3,3H143.59a3.24,3.24,0,0,1-3-3V203.06a7.6,7.6,0,0,0-9-7.53l-43.67,7.53Z"/><path d="M175.21,129.27H322a7.53,7.53,0,1,0,0-15.06H175.21a7.11,7.11,0,0,0-7.53,7.53,7.55,7.55,0,0,0,7.53,7.53"/><path d="M175.21,165.41H322a7.53,7.53,0,1,0,0-15.06H175.21a7.11,7.11,0,0,0-7.53,7.53,7.55,7.55,0,0,0,7.53,7.53"/><path d="M175.21,201.55H322a7.53,7.53,0,1,0,0-15.06H175.21a7.11,7.11,0,0,0-7.53,7.53,7.55,7.55,0,0,0,7.53,7.53"/></g></svg>