<svg id="Layer_1" data-name="Layer 1" xmlns="http://www.w3.org/2000/svg" viewBox="0 0 300 300"><title>category-img2</title><path d="M211.21,268a5,5,0,0,0-6.06,3.9l-5,21.43a5.39,5.39,0,0,0,3.64,6.5A4.48,4.48,0,0,0,205,300a5.08,5.08,0,0,0,4.84-4.06l5-21.43a5.4,5.4,0,0,0-3.64-6.5Zm0,0" transform="translate(0 0)"/><path d="M150,160.71a4.67,4.67,0,0,0,1.91-.4l55-24.39a5.5,5.5,0,0,0,2.71-7,4.9,4.9,0,0,0-6.53-2.9L150,149.56,10,87.49V85.71a5.19,5.19,0,0,0-5-5.36,5.19,5.19,0,0,0-5,5.36v5.36a5.37,5.37,0,0,0,3.09,5l145,64.29a4.68,4.68,0,0,0,1.91.4Zm0,0" transform="translate(0 0)"/><path d="M209.48,215.6a4.84,4.84,0,0,0-6.7-2.43c-9.5,5-25.36,10.88-47.78,11.68V176.78a5,5,0,1,0-10,0v48c-62.08-2.12-82.12-42.42-85-49.13V139.29a5,5,0,1,0-10,0v37.5a5.76,5.76,0,0,0,.35,2c.87,2.32,22.15,56.94,99.64,56.94,27.08,0,46.06-7,57.21-12.94a5.52,5.52,0,0,0,2.27-7.17Zm0,0" transform="translate(0 0)"/><path d="M225,273.22a5.19,5.19,0,0,0-5,5.36v16.07a5,5,0,1,0,10,0V278.57a5.19,5.19,0,0,0-5-5.36Zm0,0" transform="translate(0 0)"/><path d="M295,80.36a5.19,5.19,0,0,0-5,5.36v1.77l-60,26.46v-9.68l66.91-29.67a5.51,5.51,0,0,0,0-9.9L151.91.4a4.71,4.71,0,0,0-3.82,0L3.09,64.69a5.51,5.51,0,0,0,0,9.9l145,64.28a4.68,4.68,0,0,0,3.82,0l52.43-23.24a5.49,5.49,0,0,0,2.71-7,4.89,4.89,0,0,0-6.53-2.9L150,128.13,18.08,69.64,150,11.15,281.92,69.64,224.52,95.09l-55-22a13.71,13.71,0,0,0,.46-3.46c0-9-8.78-16.07-20-16.07s-20,7.06-20,16.07,8.78,16.07,20,16.07a23,23,0,0,0,12.94-3.82L220,104.72v132a16,16,0,0,0-10,15.09c0,8.86,6.73,16.07,15,16.07s15-7.21,15-16.07a16,16,0,0,0-10-15.09V206.29a65.2,65.2,0,0,0,19.72-27.76,5.75,5.75,0,0,0,.27-1.75v-37.5a5,5,0,1,0-10,0V175.8A55.42,55.42,0,0,1,230,192V125.53L296.9,96a5.38,5.38,0,0,0,3.1-5V85.71a5.19,5.19,0,0,0-5-5.36ZM150,75c-6.11,0-10-3.17-10-5.36s3.9-5.36,10-5.36,10,3.17,10,5.36S156.11,75,150,75Zm75,182.15a5.37,5.37,0,1,1,5-5.36,5.19,5.19,0,0,1-5,5.36Zm0,0" transform="translate(0 0)"/><path d="M244.85,271.91a5,5,0,0,0-6.06-3.9,5.39,5.39,0,0,0-3.64,6.5l5,21.43A5.08,5.08,0,0,0,245,300a4.5,4.5,0,0,0,1.22-.16,5.39,5.39,0,0,0,3.64-6.5Zm0,0" transform="translate(0 0)"/></svg>